<svg width="16" height="17" viewBox="0 0 16 17" fill="none" xmlns="http://www.w3.org/2000/svg">
<path d="M5.99363 13.8599C2.42675 14.9299 2.42675 12.0764 1 11.7197M10.9873 16V13.2392C11.014 12.8991 10.9681 12.5571 10.8524 12.2361C10.7368 11.9151 10.5542 11.6223 10.3167 11.3773C12.5567 11.1276 14.9108 10.2787 14.9108 6.3837C14.9106 5.3877 14.5275 4.4299 13.8408 3.70854C14.166 2.83716 14.143 1.87399 13.7766 1.01911C13.7766 1.01911 12.9348 0.769432 10.9873 2.07491C9.35221 1.63178 7.62868 1.63178 5.99363 2.07491C4.04611 0.769432 3.20433 1.01911 3.20433 1.01911C2.83792 1.87399 2.81493 2.83716 3.14013 3.70854C2.44824 4.43525 2.06473 5.40171 2.07006 6.4051C2.07006 10.2716 4.4242 11.1205 6.6642 11.3987C6.4295 11.6413 6.24849 11.9305 6.13296 12.2476C6.01742 12.5647 5.96995 12.9026 5.99363 13.2392V16" stroke="#ABF07C" stroke-width="1.5" stroke-linecap="round" stroke-linejoin="round"/>
</svg>
