<svg width="40" height="40" viewBox="0 0 40 40" fill="none" xmlns="http://www.w3.org/2000/svg">
<path d="M10 16C10 19.713 11.475 23.274 14.1005 25.8995C16.726 28.525 20.287 30 24 30C27.713 30 31.274 28.525 33.8995 25.8995C36.525 23.274 38 19.713 38 16C38 12.287 36.525 8.72601 33.8995 6.1005C31.274 3.475 27.713 2 24 2C20.287 2 16.726 3.475 14.1005 6.1005C11.475 8.72601 10 12.287 10 16Z" stroke="black" stroke-width="4" stroke-linecap="round" stroke-linejoin="round"/>
<path d="M38 16C38 14.1435 37.2625 12.363 35.9497 11.0503C34.637 9.7375 32.8565 9 31 9C29.1435 9 27.363 9.7375 26.0503 11.0503C24.7375 12.363 24 14.1435 24 16M24 16C24 17.8565 23.2625 19.637 21.9497 20.9497C20.637 22.2625 18.8565 23 17 23C15.1435 23 13.363 22.2625 12.0503 20.9497C10.7375 19.637 10 17.8565 10 16M24 16C25.8565 16 27.637 16.7375 28.9497 18.0503C30.2625 19.363 31 21.1435 31 23C31 24.8565 30.2625 26.637 28.9497 27.9497C27.637 29.2625 25.8565 30 24 30M24 16C22.1435 16 20.363 15.2625 19.0503 13.9497C17.7375 12.637 17 10.8565 17 9C17 7.14348 17.7375 5.36301 19.0503 4.05025C20.363 2.7375 22.1435 2 24 2M2 38L14 26" stroke="black" stroke-width="4" stroke-linecap="round" stroke-linejoin="round"/>
</svg>
